# xmcd CD database file
#
# Track frame offsets:
#	150
#	27288
#	50813
#	84536
#	122098
#	141423
#	165632
#	183827
#	213368
#
# Disc length: 3028 seconds
#
# Revision: 0
# Processed by: cddbd v1.5.2PL0 Copyright (c) Steve Scherf et al.
# Submitted via: CDex 1.70beta2
#
DISCID=7d0bd209
DTITLE=PRZEMEK DYAKOWSKI - MELISA
DYEAR=2007
DGENRE=Jazz
TTITLE0=Melisa 
TTITLE1=The Legend of The Baltic Sea 
TTITLE2=Romance del Sol 
TTITLE3=The Sailor 
TTITLE4=Pi Di
TTITLE5=Work Aside
TTITLE6=Larry OK
TTITLE7=A Little Part of Me
TTITLE8=Larry, The rebel of Love
EXTD=YEAR: 2007
EXTT0=
EXTT1=
EXTT2=
EXTT3=
EXTT4=
EXTT5=
EXTT6=
EXTT7=
EXTT8=
PLAYORDER=
